<?xml version="1.0" encoding="UTF-8"?> <svg xmlns="http://www.w3.org/2000/svg" xmlns:xlink="http://www.w3.org/1999/xlink" version="1.1" id="Layer_1" x="0px" y="0px" viewBox="0 0 316.2 85.7" style="enable-background:new 0 0 316.2 85.7;" xml:space="preserve"> <style type="text/css"> .st0{fill:#00491F;} </style> <path class="st0" d="M112.3,44.8v-6.5h16.9c0,2.1,0,4.1,0,6.1c0,0.2-0.5,0.6-0.8,0.6c-1,0.1-2.1,0-3.2,0c-0.6,5.3-2.9,9.7-7.1,13.1 c1.9,3.4,3.7,6.8,5.6,10.1c0.7,1.2,1.3,2.4,2,3.6c0.2,0.3,0.7,0.7,1.1,0.7c1.4,0.1,2.8,0,4.2,0v6.7c0,0-9.3,0-11.2,0 c-0.6,0-0.9-0.2-1.2-0.7c-2.8-5.3-5.7-10.6-8.6-15.8c-0.1-0.1-0.1-0.2-0.1-0.2c-1.6,0.3-3.2,0.5-4.7,0.9c-0.3,0.1-0.8,0.5-0.8,0.8 c-0.1,2.7,0,5.5,0,8.3h4.7v6.6H89.7v-6c0.8-0.1,1.5-0.3,2.3-0.3c1.6-0.1,2.4-0.8,2.6-2.4c0-0.3,0-26.7,0-39.5c0-2.2-0.8-2.9-2.7-2.7 c-0.6,0-1.3,0-2.1,0v-7h14.3v35.4c1.5-0.4,2.9-0.7,4.2-1.1c4-1.5,6.9-4.1,8.1-8.3c0.5-1.6-0.1-2.4-1.7-2.4 C114.1,44.8,113.2,44.8,112.3,44.8"></path> <path class="st0" d="M171.2,73.1c1.1-0.2,2.2-0.3,3.2-0.5c1.2-0.2,1.8-1.1,1.8-2.3c0-7.6,0-15.2,0-22.8c0-1.7-0.8-2.4-2.5-2.5 c-1,0-1.9-0.1-2.9-0.1v-6.6h13.7v4.6c1.5-1.2,2.9-2.6,4.6-3.5c1.8-1,3.8-1.8,5.9-2.1c2.8-0.3,5.8-0.3,8.5,0.8 c7.2,2.9,7.1,11.8,7.1,13.9c0.1,6.8,0,13.6,0,20.4c1.5,0.1,3,0.2,4.6,0.3v6.4H196V73c0.9-0.1,1.8-0.2,2.7-0.3c1.2-0.1,2.2-1,2.2-2.3 c0-6.6-0.1-13.2-0.2-19.7c0-1-0.4-2.1-0.7-3c-0.6-1.5-1.7-2.2-3.2-2.7c-6.8-1.9-10.8,3.1-10.8,7.2c0,6.4,0,20.3,0,20.3 c1.6,0.1,3.1,0.2,4.6,0.3v6.4h-19.3V73.1z"></path> <path class="st0" d="M143.3,56.4c1-0.1,13.3-0.3,14.3-6.8c0.9-6-5.9-6.5-9.1-4.4C144.6,47.7,143.5,51.8,143.3,56.4 M167,75.7 c-2.3,1.8-4.9,3.1-7.7,3.7c-14.3,3.2-27.6-2.3-25.8-23c0.8-9.5,9-23.4,25.6-18.5c11.1,3.3,10.3,19.6-2.2,23.3 c-2.6,0.8-5.3,1.2-8,1.6c-1.7,0.3-3.4,0.3-5.1,0.4c0,3.6,1.9,7.5,6,8.9c6.8,2.3,12.1-1.9,14.1-3C164.9,71.2,165.9,73.4,167,75.7"></path> <path class="st0" d="M255.5,56.4c1-0.1,13.3-0.3,14.3-6.8c0.9-6-5.9-6.5-9.1-4.4C256.8,47.7,255.7,51.8,255.5,56.4 M279.2,75.7 c-2.3,1.8-4.9,3.1-7.7,3.7c-14.3,3.2-27.6-2.3-25.8-23c0.8-9.5,9-23.4,25.6-18.5c11.1,3.3,10.3,19.6-2.2,23.3 c-2.6,0.8-5.3,1.2-8,1.6c-1.7,0.3-3.4,0.3-5.1,0.4c0,3.6,1.9,7.5,6,8.9c6.8,2.3,12.1-1.9,14.1-3C277.1,71.2,278.1,73.4,279.2,75.7"></path> <path class="st0" d="M307.7,37.2c2.5,0,5,0.2,7.3,1.2c0.7,0.3,1.2,0.6,1.2,1.6c-0.1,3.3-0.1,6.6,0,9.9c0,0.8-0.2,1.1-1.1,1.2 c-2.2,0.1-4.3,0.4-6.6,0.6c0-1.4,0.1-2.5,0-3.6c-0.1-1.9-0.6-2.3-2.5-2.5c-3.9-0.3-6.6,1.9-7.6,5.3c-0.3,0.9-0.3,2-0.3,2.9 c0,5.9,0,11.7,0,17.6c0,1.1,0.3,1.3,1.3,1.3c1.9,0,3.8,0.2,5.8,0.2v6.3h-21.8v-6.1c0.6-0.1,1.4-0.2,2.1-0.3c1.9-0.1,2.9-1,2.9-2.9 c0-4.3,0-21.2,0-21.2c0-3.2-0.4-3.6-3.6-3.7c-0.6,0-1.1,0-1.8,0v-6.7h13.7c0,0,0,5.5,0,5.6C296.8,43.8,300.1,37.3,307.7,37.2z"></path> <path class="st0" d="M226.1,29.6h5.2v8.6h10.8c-0.3,2.3-0.6,4.6-0.8,6.9h-9.9c0,0.4-0.1,0.8-0.1,1.1c0,7.2,0,14.5,0,21.7 c0,2.2,1.6,4.4,3.3,4.9c3.2,0.8,6.5-1.2,7.4-1.7c0.7,1.6,1.3,3.2,2,4.9c0.1,0.3,0.3,0.6,0.3,1c0,0.4-0.1,0.8-0.3,0.9 c-2.2,1.2-4,1.8-7,2.3c-2.2,0.4-4.5,0.3-6.6,0c-9.7-1.6-8.8-9.9-8.8-11.7c0-7.3,0-23.3,0-23.3h-5.9c0.2-1.7,0.5-3.2,0.6-4.8 c0.1-0.7,0.3-1.2,1-1.3c3.3-0.6,5.4-2.7,6.9-5.5c0.6-1.2,1.1-2.5,1.6-3.7C226,29.7,226.1,29.7,226.1,29.6"></path> <path class="st0" d="M42.1,46.6c-7.9,0-14.4-6.4-14.4-14.4s6.4-14.4,14.4-14.4s14.4,6.4,14.4,14.4S50,46.6,42.1,46.6z M42.1,26.4 c-3.2,0-5.9,2.6-5.9,5.9s2.6,5.9,5.9,5.9c3.2,0,5.9-2.6,5.9-5.9S45.3,26.4,42.1,26.4z"></path> <circle class="st0" cx="23.6" cy="62" r="6.6"></circle> <path class="st0" d="M61.8,57.7c7.6-5.9,12.5-15.1,12.5-25.5C74.3,14.5,59.8,0,42.1,0S9.8,14.5,9.8,32.2c0,3.4,0.5,6.6,1.5,9.6 C4.5,46.1,0,53.5,0,62c0,13,10.6,23.6,23.6,23.6c7.7,0,14.5-3.7,18.8-9.3c2.5,3.3,6.4,5.5,10.8,5.5c7.5,0,13.5-6.1,13.5-13.5 C66.8,64,64.8,60.2,61.8,57.7z M42.1,55.1c-1.8,0-3.6-0.2-5.3-0.6c1.3,2.2,2,4.8,2,7.6c0,8.4-6.8,15.1-15.1,15.1S8.5,70.4,8.5,62 s6.8-15.1,15.1-15.1c0.3,0,0.6,0,0.9,0c-3.3-4-5.4-9.1-5.4-14.7c0-12.6,10.3-22.9,22.9-22.9s22.9,10.3,22.9,22.9 S54.7,55.1,42.1,55.1z M53.3,74.1c-3.2,0-5.9-2.6-5.9-5.9c0-3.2,2.6-5.9,5.9-5.9s5.9,2.6,5.9,5.9C59.1,71.5,56.5,74.1,53.3,74.1z"></path> </svg> 